<svg id="winsocial" xmlns="http://www.w3.org/2000/svg" width="500.754" height="89.99" viewBox="0 0 500.754 89.99">
  <path id="Path_3" data-name="Path 3" d="M101.866,54.686l-16.6,35.492L69.694,54.686H67.4L51.6,90.293,35,54.686H23.211l27.02,58.391h2.748L68.549,78.959l15.456,34.118h2.748l26.905-58.391Z" transform="translate(-23.211 -23.774)" fill="#673cbc"/>
  <path id="Path_4" data-name="Path 4" d="M93.981,50.206a7.4,7.4,0,1,1,0-14.769,7.634,7.634,0,0,1,7.785,7.327,7.653,7.653,0,0,1-7.785,7.442ZM99.82,65.777v57.131H88.485V65.777Z" transform="translate(12.702 -34.75)" fill="#673cbc"/>
  <path id="Path_5" data-name="Path 5" d="M133.1,53.957c-7.9,0-13.051,2.519-15.914,6.411V55.1H105.855v57.246H117.19V80.863c0-11.335,7.67-15.227,15.914-15.227,4.58,0,12.48,3.435,12.48,14.082v32.63h11.334V79.718C156.918,59.453,143.637,53.957,133.1,53.957Z" transform="translate(23.912 -24.19)" fill="#673cbc"/>
  <path id="Path_6" data-name="Path 6" d="M170.492,77.7c-3.206-.687-5.5-1.259-7.672-1.946-3.2-1.031-3.778-3.32-3.778-5.954,0-3.549,2.176-6.412,7.1-6.412,4.007,0,7.9,1.717,7.9,4.465h11.45c-1.146-7.9-7.672-13.968-19.349-13.968-11.106,0-17.861,6.984-17.861,16.029,0,7.9,5.954,13.4,14.54,15.685l7.672,1.832a8.473,8.473,0,0,1,7.1,8.129c0,4.007-3.434,7.9-9.96,7.9-6.411,0-10.762-4.236-10.762-8.243H144.961c0,10.533,10.875,18.2,22.669,18.2s21.18-7.442,21.18-17.975c0-9.617-8.014-15.685-18.318-17.746Z" transform="translate(46.21 -24.231)" fill="#673cbc"/>
  <path id="Path_7" data-name="Path 7" d="M207.938,112.91a29.367,29.367,0,1,1,29.311-29.424,29.415,29.415,0,0,1-29.311,29.424Zm-.229-9.961c9.732,0,17.632-8.587,17.632-19.235,0-10.533-7.9-19.234-17.632-19.234-9.845,0-17.63,8.7-17.63,19.234C190.078,94.362,197.863,102.949,207.709,102.949Z" transform="translate(65.342 -24.065)" fill="#673cbc"/>
  <path id="Path_8" data-name="Path 8" d="M264.591,72.005h12.822c-4.122-10.533-13.738-17.975-25.874-17.975a29.539,29.539,0,1,0,0,59.077c12.364,0,21.981-7.556,25.988-18.319H265.049c-2.862,4.923-7.672,8.243-13.625,8.243-9.961,0-17.861-8.587-17.861-19.349,0-10.533,7.9-19.234,17.861-19.234a15.143,15.143,0,0,1,13.166,7.556Z" transform="translate(90.072 -24.148)" fill="#673cbc"/>
  <path id="Path_9" data-name="Path 9" d="M272.5,50.206a7.4,7.4,0,1,1,0-14.769,7.633,7.633,0,0,1,7.785,7.327,7.652,7.652,0,0,1-7.785,7.442Zm5.838,15.571v57.131H267V65.777Z" transform="translate(114.49 -34.75)" fill="#673cbc"/>
  <path id="Path_10" data-name="Path 10" d="M330.08,112.181v-6.869s-5.723,7.9-18.318,7.9a29.482,29.482,0,1,1,0-58.963c12.595,0,18.318,7.9,18.318,7.9V54.936h11.106v57.246Zm-18.089-8.93c9.96,0,17.861-8.7,17.861-19.234,0-10.648-7.9-19.464-17.861-19.464S294.13,73.369,294.13,84.017C294.13,94.55,302.03,103.251,311.991,103.251Z" transform="translate(124.411 -24.023)" fill="#673cbc"/>
  <path id="Path_11" data-name="Path 11" d="M341.322,106.671V35l-11.448,3.435v68.237c0,12.938,6.755,18.319,19.233,18.319V113.54c-4.808,0-7.785-1.6-7.785-6.87Z" transform="translate(151.647 -34.999)" fill="#673cbc"/>
</svg>
